<?xml version="1.0" encoding="UTF-8" standalone="no"?><svg xmlns="http://www.w3.org/2000/svg" xmlns:xlink="http://www.w3.org/1999/xlink" contentScriptType="application/ecmascript" contentStyleType="text/css" height="1173px" preserveAspectRatio="none" style="width:397px;height:1173px;background:#123749;" version="1.1" viewBox="0 0 397 1173" width="397px" zoomAndPan="magnify"><defs><filter height="300%" id="f10cyafpkxjr4l" width="300%" x="-1" y="-1"><feGaussianBlur result="blurOut" stdDeviation="2.0"/><feColorMatrix in="blurOut" result="blurOut2" type="matrix" values="0 0 0 0 0 0 0 0 0 0 0 0 0 0 0 0 0 0 .4 0"/><feOffset dx="4.0" dy="4.0" in="blurOut2" result="blurOut3"/><feBlend in="SourceGraphic" in2="blurOut3" mode="normal"/></filter></defs><g><text fill="#FAF0E6" font-family="sans-serif" font-size="18" lengthAdjust="spacingAndGlyphs" textLength="78" x="163.5" y="16.708">SoftDesk</text><text fill="#FAF0E6" font-family="sans-serif" font-size="18" lengthAdjust="spacingAndGlyphs" textLength="122" x="141.5" y="37.6611">Class diagram</text><!--MD5=[3fd616f346a44cd59a91eb10b19e157c]
class User--><rect fill="#123749" filter="url(#f10cyafpkxjr4l)" height="176.0469" id="User" rx="10" ry="10" style="stroke: #EEB258; stroke-width: 1.5;" width="175" x="187.5" y="49.9063"/><ellipse cx="256.25" cy="65.9063" fill="#ADD1B2" rx="11" ry="11" style="stroke: #EEB258; stroke-width: 1.0;"/><path d="M259.2188,71.5469 Q258.6406,71.8438 258,71.9844 Q257.3594,72.1406 256.6563,72.1406 Q254.1563,72.1406 252.8281,70.5 Q251.5156,68.8438 251.5156,65.7188 Q251.5156,62.5938 252.8281,60.9375 Q254.1563,59.2813 256.6563,59.2813 Q257.3594,59.2813 258,59.4375 Q258.6563,59.5938 259.2188,59.8906 L259.2188,62.6094 Q258.5938,62.0313 258,61.7656 Q257.4063,61.4844 256.7813,61.4844 Q255.4375,61.4844 254.75,62.5625 Q254.0625,63.625 254.0625,65.7188 Q254.0625,67.8125 254.75,68.8906 Q255.4375,69.9531 256.7813,69.9531 Q257.4063,69.9531 258,69.6875 Q258.5938,69.4063 259.2188,68.8281 L259.2188,71.5469 Z "/><text fill="#FFFFFF" font-family="sans-serif" font-size="12" lengthAdjust="spacingAndGlyphs" textLength="29" x="276.75" y="70.0605">User</text><line style="stroke: #EEB258; stroke-width: 1.5;" x1="188.5" x2="361.5" y1="81.9063" y2="81.9063"/><ellipse cx="198.5" cy="92.9063" fill="none" rx="3" ry="3" style="stroke: #038048; stroke-width: 1.0;"/><text fill="#FAF0E6" font-family="sans-serif" font-size="11" lengthAdjust="spacingAndGlyphs" textLength="83" x="207.5" y="96.1167">userName: str</text><ellipse cx="198.5" cy="105.7109" fill="none" rx="3" ry="3" style="stroke: #038048; stroke-width: 1.0;"/><text fill="#FAF0E6" font-family="sans-serif" font-size="11" lengthAdjust="spacingAndGlyphs" textLength="80" x="207.5" y="108.9214">password: str</text><ellipse cx="198.5" cy="118.5156" fill="none" rx="3" ry="3" style="stroke: #038048; stroke-width: 1.0;"/><text fill="#FAF0E6" font-family="sans-serif" font-size="11" lengthAdjust="spacingAndGlyphs" textLength="43" x="207.5" y="121.7261">age: int</text><ellipse cx="198.5" cy="131.3203" fill="none" rx="3" ry="3" style="stroke: #038048; stroke-width: 1.0;"/><text fill="#FAF0E6" font-family="sans-serif" font-size="11" lengthAdjust="spacingAndGlyphs" textLength="133" x="207.5" y="134.5308">can_be_contacted: bool</text><ellipse cx="198.5" cy="144.125" fill="none" rx="3" ry="3" style="stroke: #038048; stroke-width: 1.0;"/><text fill="#FAF0E6" font-family="sans-serif" font-size="11" lengthAdjust="spacingAndGlyphs" textLength="149" x="207.5" y="147.3354">can_data_be_shared: bool</text><ellipse cx="198.5" cy="156.9297" fill="none" rx="3" ry="3" style="stroke: #038048; stroke-width: 1.0;"/><text fill="#FAF0E6" font-family="sans-serif" font-size="11" lengthAdjust="spacingAndGlyphs" textLength="132" x="207.5" y="160.1401">created_time: datetime</text><line style="stroke: #EEB258; stroke-width: 1.5;" x1="188.5" x2="361.5" y1="166.7344" y2="166.7344"/><ellipse cx="198.5" cy="177.7344" fill="#84BE84" rx="3" ry="3" style="stroke: #038048; stroke-width: 1.0;"/><text fill="#FAF0E6" font-family="sans-serif" font-size="11" lengthAdjust="spacingAndGlyphs" textLength="35" x="207.5" y="180.9448">login()</text><ellipse cx="198.5" cy="190.5391" fill="#84BE84" rx="3" ry="3" style="stroke: #038048; stroke-width: 1.0;"/><text fill="#FAF0E6" font-family="sans-serif" font-size="11" lengthAdjust="spacingAndGlyphs" textLength="43" x="207.5" y="193.7495">logout()</text><ellipse cx="198.5" cy="203.3438" fill="#84BE84" rx="3" ry="3" style="stroke: #038048; stroke-width: 1.0;"/><text fill="#FAF0E6" font-family="sans-serif" font-size="11" lengthAdjust="spacingAndGlyphs" textLength="89" x="207.5" y="206.5542">update_profile()</text><ellipse cx="198.5" cy="216.1484" fill="#84BE84" rx="3" ry="3" style="stroke: #038048; stroke-width: 1.0;"/><text fill="#FAF0E6" font-family="sans-serif" font-size="11" lengthAdjust="spacingAndGlyphs" textLength="98" x="207.5" y="219.3589">verify_age(): bool</text><!--MD5=[1a95835255177050dd8028a7da1b3a6a]
class Contributor--><rect fill="#123749" filter="url(#f10cyafpkxjr4l)" height="99.2188" id="Contributor" rx="10" ry="10" style="stroke: #EEB258; stroke-width: 1.5;" width="223" x="163.5" y="285.9063"/><ellipse cx="235.25" cy="301.9063" fill="#ADD1B2" rx="11" ry="11" style="stroke: #EEB258; stroke-width: 1.0;"/><path d="M238.2188,307.5469 Q237.6406,307.8438 237,307.9844 Q236.3594,308.1406 235.6563,308.1406 Q233.1563,308.1406 231.8281,306.5 Q230.5156,304.8438 230.5156,301.7188 Q230.5156,298.5938 231.8281,296.9375 Q233.1563,295.2813 235.6563,295.2813 Q236.3594,295.2813 237,295.4375 Q237.6563,295.5938 238.2188,295.8906 L238.2188,298.6094 Q237.5938,298.0313 237,297.7656 Q236.4063,297.4844 235.7813,297.4844 Q234.4375,297.4844 233.75,298.5625 Q233.0625,299.625 233.0625,301.7188 Q233.0625,303.8125 233.75,304.8906 Q234.4375,305.9531 235.7813,305.9531 Q236.4063,305.9531 237,305.6875 Q237.5938,305.4063 238.2188,304.8281 L238.2188,307.5469 Z "/><text fill="#FFFFFF" font-family="sans-serif" font-size="12" lengthAdjust="spacingAndGlyphs" textLength="71" x="255.75" y="306.0605">Contributor</text><line style="stroke: #EEB258; stroke-width: 1.5;" x1="164.5" x2="385.5" y1="317.9063" y2="317.9063"/><ellipse cx="174.5" cy="328.9063" fill="none" rx="3" ry="3" style="stroke: #038048; stroke-width: 1.0;"/><text fill="#FAF0E6" font-family="sans-serif" font-size="11" lengthAdjust="spacingAndGlyphs" textLength="187" x="183.5" y="332.1167">contributings: list of Contributing</text><line style="stroke: #EEB258; stroke-width: 1.5;" x1="164.5" x2="385.5" y1="338.7109" y2="338.7109"/><ellipse cx="174.5" cy="349.7109" fill="#84BE84" rx="3" ry="3" style="stroke: #038048; stroke-width: 1.0;"/><text fill="#FAF0E6" font-family="sans-serif" font-size="11" lengthAdjust="spacingAndGlyphs" textLength="128" x="183.5" y="352.9214">create_project(Project)</text><ellipse cx="174.5" cy="362.5156" fill="#84BE84" rx="3" ry="3" style="stroke: #038048; stroke-width: 1.0;"/><text fill="#FAF0E6" font-family="sans-serif" font-size="11" lengthAdjust="spacingAndGlyphs" textLength="159" x="183.5" y="365.7261">create_issue(Project, Issue)</text><ellipse cx="174.5" cy="375.3203" fill="#84BE84" rx="3" ry="3" style="stroke: #038048; stroke-width: 1.0;"/><text fill="#FAF0E6" font-family="sans-serif" font-size="11" lengthAdjust="spacingAndGlyphs" textLength="197" x="183.5" y="378.5308">create_comment(Issue, Comment)</text><!--MD5=[39efda452e865279576f564360128928]
class Contributing--><rect fill="#123749" filter="url(#f10cyafpkxjr4l)" height="86.4141" id="Contributing" rx="10" ry="10" style="stroke: #EEB258; stroke-width: 1.5;" width="158" x="50" y="444.9063"/><ellipse cx="87.05" cy="460.9063" fill="#ADD1B2" rx="11" ry="11" style="stroke: #EEB258; stroke-width: 1.0;"/><path d="M90.0188,466.5469 Q89.4406,466.8438 88.8,466.9844 Q88.1594,467.1406 87.4563,467.1406 Q84.9563,467.1406 83.6281,465.5 Q82.3156,463.8438 82.3156,460.7188 Q82.3156,457.5938 83.6281,455.9375 Q84.9563,454.2813 87.4563,454.2813 Q88.1594,454.2813 88.8,454.4375 Q89.4563,454.5938 90.0188,454.8906 L90.0188,457.6094 Q89.3938,457.0313 88.8,456.7656 Q88.2063,456.4844 87.5813,456.4844 Q86.2375,456.4844 85.55,457.5625 Q84.8625,458.625 84.8625,460.7188 Q84.8625,462.8125 85.55,463.8906 Q86.2375,464.9531 87.5813,464.9531 Q88.2063,464.9531 88.8,464.6875 Q89.3938,464.4063 90.0188,463.8281 L90.0188,466.5469 Z "/><text fill="#FFFFFF" font-family="sans-serif" font-size="12" lengthAdjust="spacingAndGlyphs" textLength="77" x="105.95" y="465.0605">Contributing</text><line style="stroke: #EEB258; stroke-width: 1.5;" x1="51" x2="207" y1="476.9063" y2="476.9063"/><ellipse cx="61" cy="487.9063" fill="none" rx="3" ry="3" style="stroke: #038048; stroke-width: 1.0;"/><text fill="#FAF0E6" font-family="sans-serif" font-size="11" lengthAdjust="spacingAndGlyphs" textLength="97" x="70" y="491.1167">contributor: User</text><ellipse cx="61" cy="500.7109" fill="none" rx="3" ry="3" style="stroke: #038048; stroke-width: 1.0;"/><text fill="#FAF0E6" font-family="sans-serif" font-size="11" lengthAdjust="spacingAndGlyphs" textLength="86" x="70" y="503.9214">project: Project</text><ellipse cx="61" cy="513.5156" fill="none" rx="3" ry="3" style="stroke: #038048; stroke-width: 1.0;"/><text fill="#FAF0E6" font-family="sans-serif" font-size="11" lengthAdjust="spacingAndGlyphs" textLength="132" x="70" y="516.7261">created_time: datetime</text><line style="stroke: #EEB258; stroke-width: 1.5;" x1="51" x2="207" y1="523.3203" y2="523.3203"/><!--MD5=[79d378210367c0c6ec62ef762ddfbd1b]
class Project--><rect fill="#123749" filter="url(#f10cyafpkxjr4l)" height="137.6328" id="Project" rx="10" ry="10" style="stroke: #EEB258; stroke-width: 1.5;" width="216" x="6" y="590.9063"/><ellipse cx="87.75" cy="606.9063" fill="#ADD1B2" rx="11" ry="11" style="stroke: #EEB258; stroke-width: 1.0;"/><path d="M90.7188,612.5469 Q90.1406,612.8438 89.5,612.9844 Q88.8594,613.1406 88.1563,613.1406 Q85.6563,613.1406 84.3281,611.5 Q83.0156,609.8438 83.0156,606.7188 Q83.0156,603.5938 84.3281,601.9375 Q85.6563,600.2813 88.1563,600.2813 Q88.8594,600.2813 89.5,600.4375 Q90.1563,600.5938 90.7188,600.8906 L90.7188,603.6094 Q90.0938,603.0313 89.5,602.7656 Q88.9063,602.4844 88.2813,602.4844 Q86.9375,602.4844 86.25,603.5625 Q85.5625,604.625 85.5625,606.7188 Q85.5625,608.8125 86.25,609.8906 Q86.9375,610.9531 88.2813,610.9531 Q88.9063,610.9531 89.5,610.6875 Q90.0938,610.4063 90.7188,609.8281 L90.7188,612.5469 Z "/><text fill="#FFFFFF" font-family="sans-serif" font-size="12" lengthAdjust="spacingAndGlyphs" textLength="44" x="108.25" y="611.0605">Project</text><line style="stroke: #EEB258; stroke-width: 1.5;" x1="7" x2="221" y1="622.9063" y2="622.9063"/><ellipse cx="17" cy="633.9063" fill="none" rx="3" ry="3" style="stroke: #038048; stroke-width: 1.0;"/><text fill="#FAF0E6" font-family="sans-serif" font-size="11" lengthAdjust="spacingAndGlyphs" textLength="72" x="26" y="637.1167">author: User</text><ellipse cx="17" cy="646.7109" fill="none" rx="3" ry="3" style="stroke: #038048; stroke-width: 1.0;"/><text fill="#FAF0E6" font-family="sans-serif" font-size="11" lengthAdjust="spacingAndGlyphs" textLength="87" x="26" y="649.9214">description: str</text><ellipse cx="17" cy="659.5156" fill="none" rx="3" ry="3" style="stroke: #038048; stroke-width: 1.0;"/><text fill="#FAF0E6" font-family="sans-serif" font-size="11" lengthAdjust="spacingAndGlyphs" textLength="75" x="26" y="662.7261">type: choices</text><text fill="#FAF0E6" font-family="sans-serif" font-size="11" lengthAdjust="spacingAndGlyphs" textLength="190" x="26" y="675.5308">back-end, front-end, IOS, Android</text><ellipse cx="17" cy="685.125" fill="none" rx="3" ry="3" style="stroke: #038048; stroke-width: 1.0;"/><text fill="#FAF0E6" font-family="sans-serif" font-size="11" lengthAdjust="spacingAndGlyphs" textLength="189" x="26" y="688.3354">contributors: list of Contributings</text><ellipse cx="17" cy="697.9297" fill="none" rx="3" ry="3" style="stroke: #038048; stroke-width: 1.0;"/><text fill="#FAF0E6" font-family="sans-serif" font-size="11" lengthAdjust="spacingAndGlyphs" textLength="120" x="26" y="701.1401">issues: list of Issues</text><ellipse cx="17" cy="710.7344" fill="none" rx="3" ry="3" style="stroke: #038048; stroke-width: 1.0;"/><text fill="#FAF0E6" font-family="sans-serif" font-size="11" lengthAdjust="spacingAndGlyphs" textLength="132" x="26" y="713.9448">created_time: datetime</text><line style="stroke: #EEB258; stroke-width: 1.5;" x1="7" x2="221" y1="720.5391" y2="720.5391"/><!--MD5=[70313f9481c73a9808968c254b51c052]
class Issue--><rect fill="#123749" filter="url(#f10cyafpkxjr4l)" height="201.6563" id="Issue" rx="10" ry="10" style="stroke: #EEB258; stroke-width: 1.5;" width="192" x="101" y="788.9063"/><ellipse cx="176.25" cy="804.9063" fill="#ADD1B2" rx="11" ry="11" style="stroke: #EEB258; stroke-width: 1.0;"/><path d="M179.2188,810.5469 Q178.6406,810.8438 178,810.9844 Q177.3594,811.1406 176.6563,811.1406 Q174.1563,811.1406 172.8281,809.5 Q171.5156,807.8438 171.5156,804.7188 Q171.5156,801.5938 172.8281,799.9375 Q174.1563,798.2813 176.6563,798.2813 Q177.3594,798.2813 178,798.4375 Q178.6563,798.5938 179.2188,798.8906 L179.2188,801.6094 Q178.5938,801.0313 178,800.7656 Q177.4063,800.4844 176.7813,800.4844 Q175.4375,800.4844 174.75,801.5625 Q174.0625,802.625 174.0625,804.7188 Q174.0625,806.8125 174.75,807.8906 Q175.4375,808.9531 176.7813,808.9531 Q177.4063,808.9531 178,808.6875 Q178.5938,808.4063 179.2188,807.8281 L179.2188,810.5469 Z "/><text fill="#FFFFFF" font-family="sans-serif" font-size="12" lengthAdjust="spacingAndGlyphs" textLength="33" x="196.75" y="809.0605">Issue</text><line style="stroke: #EEB258; stroke-width: 1.5;" x1="102" x2="292" y1="820.9063" y2="820.9063"/><ellipse cx="112" cy="831.9063" fill="none" rx="3" ry="3" style="stroke: #038048; stroke-width: 1.0;"/><text fill="#FAF0E6" font-family="sans-serif" font-size="11" lengthAdjust="spacingAndGlyphs" textLength="72" x="121" y="835.1167">author: User</text><ellipse cx="112" cy="844.7109" fill="none" rx="3" ry="3" style="stroke: #038048; stroke-width: 1.0;"/><text fill="#FAF0E6" font-family="sans-serif" font-size="11" lengthAdjust="spacingAndGlyphs" textLength="56" x="121" y="847.9214">name: str</text><ellipse cx="112" cy="857.5156" fill="none" rx="3" ry="3" style="stroke: #038048; stroke-width: 1.0;"/><text fill="#FAF0E6" font-family="sans-serif" font-size="11" lengthAdjust="spacingAndGlyphs" textLength="87" x="121" y="860.7261">description: str</text><ellipse cx="112" cy="870.3203" fill="none" rx="3" ry="3" style="stroke: #038048; stroke-width: 1.0;"/><text fill="#FAF0E6" font-family="sans-serif" font-size="11" lengthAdjust="spacingAndGlyphs" textLength="87" x="121" y="873.5308">status: choices</text><text fill="#FAF0E6" font-family="sans-serif" font-size="11" lengthAdjust="spacingAndGlyphs" textLength="156" x="121" y="886.3354">to do, in progress, finished</text><ellipse cx="112" cy="895.9297" fill="none" rx="3" ry="3" style="stroke: #038048; stroke-width: 1.0;"/><text fill="#FAF0E6" font-family="sans-serif" font-size="11" lengthAdjust="spacingAndGlyphs" textLength="91" x="121" y="899.1401">priority: choices</text><text fill="#FAF0E6" font-family="sans-serif" font-size="11" lengthAdjust="spacingAndGlyphs" textLength="105" x="121" y="911.9448">low, medium, high</text><ellipse cx="112" cy="921.5391" fill="none" rx="3" ry="3" style="stroke: #038048; stroke-width: 1.0;"/><text fill="#FAF0E6" font-family="sans-serif" font-size="11" lengthAdjust="spacingAndGlyphs" textLength="124" x="121" y="924.7495">assigned: Contributor</text><ellipse cx="112" cy="934.3438" fill="none" rx="3" ry="3" style="stroke: #038048; stroke-width: 1.0;"/><text fill="#FAF0E6" font-family="sans-serif" font-size="11" lengthAdjust="spacingAndGlyphs" textLength="69" x="121" y="937.5542">tag: choices</text><text fill="#FAF0E6" font-family="sans-serif" font-size="11" lengthAdjust="spacingAndGlyphs" textLength="102" x="121" y="950.3589">bug, task, feature</text><ellipse cx="112" cy="959.9531" fill="none" rx="3" ry="3" style="stroke: #038048; stroke-width: 1.0;"/><text fill="#FAF0E6" font-family="sans-serif" font-size="11" lengthAdjust="spacingAndGlyphs" textLength="166" x="121" y="963.1636">comments: list of Comments</text><ellipse cx="112" cy="972.7578" fill="none" rx="3" ry="3" style="stroke: #038048; stroke-width: 1.0;"/><text fill="#FAF0E6" font-family="sans-serif" font-size="11" lengthAdjust="spacingAndGlyphs" textLength="132" x="121" y="975.9683">created_time: datetime</text><line style="stroke: #EEB258; stroke-width: 1.5;" x1="102" x2="292" y1="982.5625" y2="982.5625"/><!--MD5=[042fa140da40c49659127f611bcff931]
class Comment--><rect fill="#123749" filter="url(#f10cyafpkxjr4l)" height="112.0234" id="Comment" rx="10" ry="10" style="stroke: #EEB258; stroke-width: 1.5;" width="158" x="192" y="1050.9063"/><ellipse cx="237.25" cy="1066.9063" fill="#ADD1B2" rx="11" ry="11" style="stroke: #EEB258; stroke-width: 1.0;"/><path d="M240.2188,1072.5469 Q239.6406,1072.8438 239,1072.9844 Q238.3594,1073.1406 237.6563,1073.1406 Q235.1563,1073.1406 233.8281,1071.5 Q232.5156,1069.8438 232.5156,1066.7188 Q232.5156,1063.5938 233.8281,1061.9375 Q235.1563,1060.2813 237.6563,1060.2813 Q238.3594,1060.2813 239,1060.4375 Q239.6563,1060.5938 240.2188,1060.8906 L240.2188,1063.6094 Q239.5938,1063.0313 239,1062.7656 Q238.4063,1062.4844 237.7813,1062.4844 Q236.4375,1062.4844 235.75,1063.5625 Q235.0625,1064.625 235.0625,1066.7188 Q235.0625,1068.8125 235.75,1069.8906 Q236.4375,1070.9531 237.7813,1070.9531 Q238.4063,1070.9531 239,1070.6875 Q239.5938,1070.4063 240.2188,1069.8281 L240.2188,1072.5469 Z "/><text fill="#FFFFFF" font-family="sans-serif" font-size="12" lengthAdjust="spacingAndGlyphs" textLength="59" x="257.75" y="1071.0605">Comment</text><line style="stroke: #EEB258; stroke-width: 1.5;" x1="193" x2="349" y1="1082.9063" y2="1082.9063"/><ellipse cx="203" cy="1093.9063" fill="none" rx="3" ry="3" style="stroke: #038048; stroke-width: 1.0;"/><text fill="#FAF0E6" font-family="sans-serif" font-size="11" lengthAdjust="spacingAndGlyphs" textLength="72" x="212" y="1097.1167">author: User</text><ellipse cx="203" cy="1106.7109" fill="none" rx="3" ry="3" style="stroke: #038048; stroke-width: 1.0;"/><text fill="#FAF0E6" font-family="sans-serif" font-size="11" lengthAdjust="spacingAndGlyphs" textLength="87" x="212" y="1109.9214">description: str</text><ellipse cx="203" cy="1119.5156" fill="none" rx="3" ry="3" style="stroke: #038048; stroke-width: 1.0;"/><text fill="#FAF0E6" font-family="sans-serif" font-size="11" lengthAdjust="spacingAndGlyphs" textLength="70" x="212" y="1122.7261">issue: Issue</text><ellipse cx="203" cy="1132.3203" fill="none" rx="3" ry="3" style="stroke: #038048; stroke-width: 1.0;"/><text fill="#FAF0E6" font-family="sans-serif" font-size="11" lengthAdjust="spacingAndGlyphs" textLength="100" x="212" y="1135.5308">uudi: str uuidfield</text><ellipse cx="203" cy="1145.125" fill="none" rx="3" ry="3" style="stroke: #038048; stroke-width: 1.0;"/><text fill="#FAF0E6" font-family="sans-serif" font-size="11" lengthAdjust="spacingAndGlyphs" textLength="132" x="212" y="1148.3354">created_time: datetime</text><line style="stroke: #EEB258; stroke-width: 1.5;" x1="193" x2="349" y1="1154.9297" y2="1154.9297"/><!--MD5=[683338f8b273dc33af46238f4a5b0a23]
reverse link User to Contributor--><path d="M275,246.2963 C275,260.0662 275,273.5662 275,285.7062 " fill="none" id="User&lt;-Contributor" style="stroke: #EEB258; stroke-width: 1.0;"/><polygon fill="none" points="268,246.0762,275,226.0762,282,246.0762,268,246.0762" style="stroke: #EEB258; stroke-width: 1.0;"/><!--MD5=[9d284f399bc76da332ab79be2a62798b]
link Project to Issue--><path d="M138.79,729.0063 C145.09,746.3063 152,765.2963 158.8,783.9563 " fill="none" id="Project-&gt;Issue" style="stroke: #EEB258; stroke-width: 1.0;"/><polygon fill="#EEB258" points="160.52,788.6963,161.1843,778.8698,158.8021,784.0006,153.6713,781.6185,160.52,788.6963" style="stroke: #EEB258; stroke-width: 1.0;"/><text fill="#FAF0E6" font-family="sans-serif" font-size="13" lengthAdjust="spacingAndGlyphs" textLength="54" x="84.5725" y="748.6381">Possède</text><!--MD5=[a43e9bd070a25f505c902c26c5256c3f]
link Issue to Comment--><path d="M231.51,991.1663 C237.95,1009.8763 244.49,1028.8863 250.35,1045.9063 " fill="none" id="Issue-&gt;Comment" style="stroke: #EEB258; stroke-width: 1.0;"/><polygon fill="#EEB258" points="251.98,1050.6463,252.8312,1040.8342,250.3518,1045.9188,245.2673,1043.4394,251.98,1050.6463" style="stroke: #EEB258; stroke-width: 1.0;"/><text fill="#FAF0E6" font-family="sans-serif" font-size="13" lengthAdjust="spacingAndGlyphs" textLength="54" x="178.0146" y="1010.5565">Possède</text><!--MD5=[6e1a0f5330ce5be921049b631b783b3e]
link Contributor to Issue--><path d="M273.37,385.1063 C270.28,459.6463 261.77,606.3163 240,728.9063 C236.83,746.7663 232.61,765.5363 228.05,783.6863 " fill="none" id="Contributor-&gt;Issue" style="stroke: #EEB258; stroke-width: 1.0;"/><polygon fill="#EEB258" points="226.76,788.7963,232.8503,781.0562,227.9895,783.9498,225.0959,779.089,226.76,788.7963" style="stroke: #EEB258; stroke-width: 1.0;"/><text fill="#FAF0E6" font-family="sans-serif" font-size="13" lengthAdjust="spacingAndGlyphs" textLength="66" x="277.7814" y="405.2109">Peut créer</text><!--MD5=[0d3c7704849ddccd8fb5e3af9f3d94df]
link Contributor to Comment--><path d="M285.01,385.2663 C305.83,494.6163 348.82,767.0463 311,990.9063 C307.91,1009.1963 302.24,1028.4563 296.12,1045.8763 " fill="none" id="Contributor-&gt;Comment" style="stroke: #EEB258; stroke-width: 1.0;"/><polygon fill="#EEB258" points="294.38,1050.7463,301.1836,1043.6251,296.068,1046.0398,293.6533,1040.9242,294.38,1050.7463" style="stroke: #EEB258; stroke-width: 1.0;"/><text fill="#FAF0E6" font-family="sans-serif" font-size="13" lengthAdjust="spacingAndGlyphs" textLength="0" x="251.2081" y="405.2408"/><text fill="#FAF0E6" font-family="sans-serif" font-size="13" lengthAdjust="spacingAndGlyphs" textLength="66" x="216.2081" y="420.3736">Peut créer</text><!--MD5=[ec0e3e0697271901e448fae660b8f6c3]
link Contributing to Project--><path d="M125.29,530.9263 C123.84,547.3763 122.13,566.7363 120.49,585.3463 " fill="none" id="Contributing-&gt;Project" style="stroke: #EEB258; stroke-width: 1.0;"/><polygon fill="#EEB258" points="120.03,590.5763,124.7882,581.9531,120.4594,585.5947,116.8178,581.266,120.03,590.5763" style="stroke: #EEB258; stroke-width: 1.0;"/><text fill="#FAF0E6" font-family="sans-serif" font-size="13" lengthAdjust="spacingAndGlyphs" textLength="29" x="93.274" y="551.3372">gère</text><!--MD5=[f66bf20900db5d5a6c1c48393f66abfd]
link Contributor to Contributing--><path d="M227.6,385.2663 C210.26,403.1463 190.71,423.2963 173.62,440.9063 " fill="none" id="Contributor-&gt;Contributing" style="stroke: #EEB258; stroke-width: 1.0;"/><polygon fill="#EEB258" points="169.79,444.8563,178.9315,441.1911,173.2752,441.2711,173.1952,435.6148,169.79,444.8563" style="stroke: #EEB258; stroke-width: 1.0;"/><text fill="#FAF0E6" font-family="sans-serif" font-size="13" lengthAdjust="spacingAndGlyphs" textLength="78" x="137.99" y="405.0351">est géré par</text><!--MD5=[980cfffbe655ebc527ed91e77eaa4861]
@startuml
skinparam backgroundColor #123749
skinparam roundcorner 20
skinparam classfontcolor lemon chiffon
skinparam titlefontcolor linen
skinparam arrowfontcolor linen
skinparam attributefontcolor linen

skinparam class {
BackgroundColor #123749
ArrowColor #EEB258
BorderColor #EEB258
AttributeFontColor linen
}

title SoftDesk\nClass diagram

class User {
  + userName: str
  + password: str
  + age: int
  + can_be_contacted: bool
  + can_data_be_shared: bool
  + login()
  + logout()
  + update_profile()
  + verify_age(): bool
  + created_time: datetime
}

class Contributor extends User {
  + contributings: list of Contributing
  + create_project(Project)
  + create_issue(Project, Issue)
  + create_comment(Issue, Comment)
}

class Contributing {
  + contributor: User
  + project: Project
  + created_time: datetime
}

class Project {
  + author: User
  + description: str
  + type: choices
  back-end, front-end, IOS, Android
  + contributors: list of Contributings
  + issues: list of Issues
  + created_time: datetime
}

class Issue {
  + author: User
  + name: str
  + description: str
  + status: choices
  to do, in progress, finished
  + priority: choices
  low, medium, high
  + assigned: Contributor
  + tag: choices
  bug, task, feature
  + comments: list of Comments
  + created_time: datetime
}

class Comment {
  + author: User
  + description: str
  + issue: Issue
  + uudi: str uuidfield
  + created_time: datetime
}

Project "Possède" - -> Issue
Issue "Possède" - -> Comment
Contributor "Peut créer" - -> Issue
Contributor "\nPeut créer" - -> Comment
Contributing "gère" - -> Project
Contributor "est géré par" - -> Contributing
@enduml

PlantUML version 1.2020.02(Sun Mar 01 11:22:07 CET 2020)
(GPL source distribution)
Java Runtime: OpenJDK Runtime Environment
JVM: OpenJDK 64-Bit Server VM
Java Version: 11.0.20+8-post-Ubuntu-1ubuntu122.04
Operating System: Linux
Default Encoding: UTF-8
Language: fr
Country: FR
--></g></svg>